{
  "accessors": [
    {
      "bufferView": 1,
      "componentType": 5126,
      "count": 65532,
      "max": [10.003809928894043, 31.110406875610352, 97.029747009277344],
      "min": [-45.558277130126953, -14.386743545532227, 5.3839773114241433e-15],
      "type": "VEC3"
    },
    {
      "bufferView": 1,
      "byteOffset": 786384,
      "componentType": 5126,
      "count": 65532,
      "max": [0.99995946884155273, 0.99996381998062134, 0.99994677305221558],
      "min": [-0.99997329711914062, -0.99999183416366577, -1],
      "type": "VEC3"
    },
    {
      "bufferView": 0,
      "componentType": 5125,
      "count": 355767,
      "max": [65531],
      "min": [0],
      "type": "SCALAR"
    },
    {
      "bufferView": 1,
      "byteOffset": 1572768,
      "componentType": 5126,
      "count": 65532,
      "max": [-8.8056306838989258, 36.286434173583984, 21.812637329101562],
      "min": [-42.248992919921875, -1.2160918712615967, 5.5567394218955513e-15],
      "type": "VEC3"
    },
    {
      "bufferView": 1,
      "byteOffset": 2359152,
      "componentType": 5126,
      "count": 65532,
      "max": [0.91133254766464233, 0.99999827146530151, 0.99998509883880615],
      "min": [-0.99994319677352905, -0.99227237701416016, -1],
      "type": "VEC3"
    },
    {
      "bufferView": 0,
      "byteOffset": 1423068,
      "componentType": 5125,
      "count": 357027,
      "max": [65531],
      "min": [0],
      "type": "SCALAR"
    },
    {
      "bufferView": 1,
      "byteOffset": 3145536,
      "componentType": 5126,
      "count": 65532,
      "max": [1.3394343852996826, 34.592056274414062, 35.936817169189453],
      "min": [-41.57403564453125, -2.6248724460601807, 5.3331892159067754e-15],
      "type": "VEC3"
    },
    {
      "bufferView": 1,
      "byteOffset": 3931920,
      "componentType": 5126,
      "count": 65532,
      "max": [0.9990045428276062, 0.9933733344078064, 0.99896138906478882],
      "min": [-0.9814639687538147, -0.99995994567871094, -1],
      "type": "VEC3"
    },
    {
      "bufferView": 0,
      "byteOffset": 2851176,
      "componentType": 5125,
      "count": 355254,
      "max": [65531],
      "min": [0],
      "type": "SCALAR"
    },
    {
      "bufferView": 1,
      "byteOffset": 4718304,
      "componentType": 5126,
      "count": 65532,
      "max": [10.051037788391113, 36.141048431396484, 68.133491516113281],
      "min": [-45.472904205322266, -20.845281600952148, 5.3778702038744398e-15],
      "type": "VEC3"
    },
    {
      "bufferView": 1,
      "byteOffset": 5504688,
      "componentType": 5126,
      "count": 65532,
      "max": [0.99997603893280029, 0.99982672929763794, 0.99987095594406128],
      "min": [-0.99998992681503296, -0.99561816453933716, -1],
      "type": "VEC3"
    },
    {
      "bufferView": 0,
      "byteOffset": 4272192,
      "componentType": 5125,
      "count": 285828,
      "max": [65531],
      "min": [0],
      "type": "SCALAR"
    },
    {
      "bufferView": 1,
      "byteOffset": 6291072,
      "componentType": 5126,
      "count": 65532,
      "max": [9.9554920196533203, 10.470593452453613, 96.188674926757812],
      "min": [-24.69340705871582, -19.471212387084961, 8.2173613887796121e-15],
      "type": "VEC3"
    },
    {
      "bufferView": 1,
      "byteOffset": 7077456,
      "componentType": 5126,
      "count": 65532,
      "max": [0.9999927282333374, 0.99999397993087769, 0.99999761581420898],
      "min": [-0.99998992681503296, -0.99997121095657349, -0.99987220764160156],
      "type": "VEC3"
    },
    {
      "bufferView": 0,
      "byteOffset": 5415504,
      "componentType": 5125,
      "count": 358047,
      "max": [65531],
      "min": [0],
      "type": "SCALAR"
    },
    {
      "bufferView": 1,
      "byteOffset": 7863840,
      "componentType": 5126,
      "count": 65532,
      "max": [11.283566474914551, 6.3997921943664551, 99.821464538574219],
      "min": [-23.93910026550293, -20.722591400146484, 6.7708315557436609e-15],
      "type": "VEC3"
    },
    {
      "bufferView": 1,
      "byteOffset": 8650224,
      "componentType": 5126,
      "count": 65532,
      "max": [0.99995654821395874, 0.99999153614044189, 0.99999094009399414],
      "min": [-0.99997735023498535, -0.99999493360519409, -1],
      "type": "VEC3"
    },
    {
      "bufferView": 0,
      "byteOffset": 6847692,
      "componentType": 5125,
      "count": 346914,
      "max": [65531],
      "min": [0],
      "type": "SCALAR"
    },
    {
      "bufferView": 1,
      "byteOffset": 9436608,
      "componentType": 5126,
      "count": 65532,
      "max": [15.284481048583984, 15.130144119262695, 99.864555358886719],
      "min": [-24.076995849609375, -16.577693939208984, 22.859527587890625],
      "type": "VEC3"
    },
    {
      "bufferView": 1,
      "byteOffset": 10222992,
      "componentType": 5126,
      "count": 65532,
      "max": [0.99996346235275269, 0.99699312448501587, 0.99986100196838379],
      "min": [-0.99460142850875854, -0.99994909763336182, -0.99981844425201416],
      "type": "VEC3"
    },
    {
      "bufferView": 0,
      "byteOffset": 8235348,
      "componentType": 5125,
      "count": 351714,
      "max": [65531],
      "min": [0],
      "type": "SCALAR"
    },
    {
      "bufferView": 1,
      "byteOffset": 11009376,
      "componentType": 5126,
      "count": 65532,
      "max": [13.217168807983398, 20.354911804199219, 100.00000762939453],
      "min": [-22.075719833374023, -20.393474578857422, 7.084015635243834e-15],
      "type": "VEC3"
    },
    {
      "bufferView": 1,
      "byteOffset": 11795760,
      "componentType": 5126,
      "count": 65532,
      "max": [0.99974346160888672, 0.99997025728225708, 0.99995118379592896],
      "min": [-0.99997031688690186, -0.99999874830245972, -1],
      "type": "VEC3"
    },
    {
      "bufferView": 0,
      "byteOffset": 9642204,
      "componentType": 5125,
      "count": 346860,
      "max": [65531],
      "min": [0],
      "type": "SCALAR"
    },
    {
      "bufferView": 1,
      "byteOffset": 12582144,
      "componentType": 5126,
      "count": 32973,
      "max": [15.150158882141113, 28.777862548828125, 99.995964050292969],
      "min": [-37.788700103759766, -20.070894241333008, 5.3432913543522038e-15],
      "type": "VEC3"
    },
    {
      "bufferView": 1,
      "byteOffset": 12977820,
      "componentType": 5126,
      "count": 32973,
      "max": [0.99999755620956421, 0.99922972917556763, 0.99862301349639893],
      "min": [-0.98713111877441406, -0.99997204542160034, -1],
      "type": "VEC3"
    },
    {
      "bufferView": 0,
      "byteOffset": 11029644,
      "componentType": 5125,
      "count": 143145,
      "max": [32972],
      "min": [0],
      "type": "SCALAR"
    }
  ],
  "asset": {
    "extras": {
      "author": "Patrickart.hk (https://sketchfab.com/Patrickart.hk)",
      "license": "CC-BY-NC-ND-4.0 (http://creativecommons.org/licenses/by-nc-nd/4.0/)",
      "source": "https://sketchfab.com/3d-models/treeckopokemon-c7a1d65bbe854b04b0847477b055e2bd",
      "title": "Treecko(Pokemon)"
    },
    "generator": "Sketchfab-9.34.0",
    "version": "2.0"
  },
  "bufferViews": [
    {
      "buffer": 0,
      "byteLength": 11602224,
      "byteOffset": 0,
      "name": "floatBufferViews",
      "target": 34963
    },
    {
      "buffer": 0,
      "byteLength": 13373496,
      "byteOffset": 11602224,
      "byteStride": 12,
      "name": "floatBufferViews",
      "target": 34962
    }
  ],
  "buffers": [
    {
      "byteLength": 24975720,
      "uri": "treecko.bin"
    }
  ],
  "materials": [
    {
      "doubleSided": true,
      "name": "Scene_-_Root",
      "pbrMetallicRoughness": {
        "baseColorFactor": [1, 1, 1, 1],
        "metallicFactor": 0,
        "roughnessFactor": 0.59999999999999998
      }
    }
  ],
  "meshes": [
    {
      "primitives": [
        {
          "attributes": {
            "NORMAL": 1,
            "POSITION": 0
          },
          "indices": 2,
          "material": 0,
          "mode": 4
        }
      ]
    },
    {
      "primitives": [
        {
          "attributes": {
            "NORMAL": 4,
            "POSITION": 3
          },
          "indices": 5,
          "material": 0,
          "mode": 4
        }
      ]
    },
    {
      "primitives": [
        {
          "attributes": {
            "NORMAL": 7,
            "POSITION": 6
          },
          "indices": 8,
          "material": 0,
          "mode": 4
        }
      ]
    },
    {
      "primitives": [
        {
          "attributes": {
            "NORMAL": 10,
            "POSITION": 9
          },
          "indices": 11,
          "material": 0,
          "mode": 4
        }
      ]
    },
    {
      "primitives": [
        {
          "attributes": {
            "NORMAL": 13,
            "POSITION": 12
          },
          "indices": 14,
          "material": 0,
          "mode": 4
        }
      ]
    },
    {
      "primitives": [
        {
          "attributes": {
            "NORMAL": 16,
            "POSITION": 15
          },
          "indices": 17,
          "material": 0,
          "mode": 4
        }
      ]
    },
    {
      "primitives": [
        {
          "attributes": {
            "NORMAL": 19,
            "POSITION": 18
          },
          "indices": 20,
          "material": 0,
          "mode": 4
        }
      ]
    },
    {
      "primitives": [
        {
          "attributes": {
            "NORMAL": 22,
            "POSITION": 21
          },
          "indices": 23,
          "material": 0,
          "mode": 4
        }
      ]
    },
    {
      "primitives": [
        {
          "attributes": {
            "NORMAL": 25,
            "POSITION": 24
          },
          "indices": 26,
          "material": 0,
          "mode": 4
        }
      ]
    }
  ],
  "nodes": [
    {
      "children": [1],
      "name": "RootNode (gltf orientation matrix)",
      "rotation": [-0.70710678118654746, -0, -0, 0.70710678118654757]
    },
    {
      "children": [2],
      "name": "RootNode (model correction matrix)"
    },
    {
      "children": [3, 4, 5, 6, 7, 8, 9, 10, 11],
      "name": "Treecko.stl.cleaner.materialmerger.gles"
    },
    {
      "mesh": 0,
      "name": ""
    },
    {
      "mesh": 1,
      "name": ""
    },
    {
      "mesh": 2,
      "name": ""
    },
    {
      "mesh": 3,
      "name": ""
    },
    {
      "mesh": 4,
      "name": ""
    },
    {
      "mesh": 5,
      "name": ""
    },
    {
      "mesh": 6,
      "name": ""
    },
    {
      "mesh": 7,
      "name": ""
    },
    {
      "mesh": 8,
      "name": ""
    }
  ],
  "scene": 0,
  "scenes": [
    {
      "name": "OSG_Scene",
      "nodes": [0]
    }
  ]
}
